<svg width="50" height="50" viewBox="0 0 50 50" fill="none" xmlns="http://www.w3.org/2000/svg">
<g clip-path="url(#clip0_902_811)">
<path d="M25 48.4375C37.9442 48.4375 48.4375 37.9442 48.4375 25C48.4375 12.0558 37.9442 1.5625 25 1.5625C12.0558 1.5625 1.5625 12.0558 1.5625 25C1.5625 37.9442 12.0558 48.4375 25 48.4375Z" fill="#E8F3FF"/>
<path d="M25 50C20.0555 50 15.222 48.5338 11.1108 45.7867C6.99953 43.0397 3.79521 39.1352 1.90302 34.5671C0.010832 29.9989 -0.484251 24.9723 0.480379 20.1227C1.44501 15.2732 3.82603 10.8186 7.32234 7.32233C10.8187 3.82601 15.2732 1.44499 20.1228 0.480364C24.9723 -0.484267 29.9989 0.0108168 34.5671 1.90301C39.1352 3.7952 43.0397 6.99951 45.7868 11.1107C48.5338 15.222 50 20.0555 50 25C50 31.6304 47.3661 37.9893 42.6777 42.6777C37.9893 47.3661 31.6304 50 25 50V50ZM25 3.125C20.6735 3.125 16.4442 4.40794 12.8469 6.8116C9.24959 9.21525 6.44581 12.6317 4.79015 16.6288C3.13448 20.6259 2.70128 25.0243 3.54533 29.2676C4.38938 33.5109 6.47278 37.4087 9.53205 40.468C12.5913 43.5272 16.4891 45.6106 20.7324 46.4547C24.9757 47.2987 29.3741 46.8655 33.3712 45.2099C37.3683 43.5542 40.7848 40.7504 43.1884 37.1531C45.5921 33.5558 46.875 29.3265 46.875 25C46.875 19.1984 44.5703 13.6344 40.468 9.53203C36.3656 5.42968 30.8016 3.125 25 3.125V3.125Z" fill="#2E58FF"/>
<path d="M16.4062 22.6562L20.7734 27.0234C21.0662 27.3145 21.4622 27.4778 21.875 27.4778C22.2878 27.4778 22.6838 27.3145 22.9766 27.0234L33.5937 16.4062C34.2153 15.7846 35.0584 15.4354 35.9375 15.4354C36.8166 15.4354 37.6596 15.7846 38.2812 16.4062C38.9028 17.0279 39.2521 17.8709 39.2521 18.75C39.2521 19.6291 38.9028 20.4721 38.2812 21.0937L25.1875 34.1875C24.3086 35.0653 23.1172 35.5584 21.875 35.5584C20.6328 35.5584 19.4414 35.0653 18.5625 34.1875L11.7187 27.3437C11.0971 26.7221 10.7479 25.8791 10.7479 25C10.7479 24.5647 10.8337 24.1337 11.0002 23.7316C11.1668 23.3294 11.411 22.964 11.7187 22.6562C12.0265 22.3485 12.3919 22.1043 12.7941 21.9377C13.1962 21.7712 13.6272 21.6854 14.0625 21.6854C14.9416 21.6854 15.7846 22.0346 16.4062 22.6562V22.6562Z" fill="#A2D0FF"/>
<path d="M17.4531 35.2891L10.6172 28.4453C9.93615 27.7635 9.47244 26.8952 9.28464 25.9501C9.09684 25.0049 9.19337 24.0253 9.56205 23.1349C9.93072 22.2446 10.555 21.4835 11.356 20.9478C12.157 20.412 13.0988 20.1257 14.0625 20.125C14.703 20.1225 15.3375 20.2476 15.9291 20.4931C16.5206 20.7385 17.0573 21.0994 17.5078 21.5547L21.875 25.9141L32.4922 15.3047C33.4157 14.4396 34.6394 13.9674 35.9046 13.9881C37.1698 14.0087 38.3775 14.5205 39.2722 15.4153C40.167 16.31 40.6788 17.5177 40.6994 18.7829C40.7201 20.0482 40.2479 21.2718 39.3828 22.1953L26.2969 35.2891C25.7164 35.8702 25.0271 36.3312 24.2684 36.6457C23.5096 36.9602 22.6963 37.1221 21.875 37.1221C21.0537 37.1221 20.2404 36.9602 19.4816 36.6457C18.7229 36.3312 18.0336 35.8702 17.4531 35.2891V35.2891ZM14.0625 23.25C13.7167 23.2518 13.379 23.3556 13.0919 23.5484C12.8048 23.7412 12.5809 24.0144 12.4483 24.3338C12.3157 24.6532 12.2803 25.0047 12.3464 25.3441C12.4126 25.6836 12.5774 25.996 12.8203 26.2422L19.6641 33.0781C19.9543 33.3687 20.2989 33.5992 20.6783 33.7564C21.0577 33.9137 21.4643 33.9946 21.875 33.9946C22.2857 33.9946 22.6923 33.9137 23.0717 33.7564C23.4511 33.5992 23.7957 33.3687 24.0859 33.0781L37.1797 19.9922C37.3524 19.8313 37.4909 19.6372 37.587 19.4216C37.6831 19.206 37.7347 18.9732 37.7389 18.7372C37.7431 18.5011 37.6996 18.2667 37.6112 18.0478C37.5228 17.8289 37.3912 17.6301 37.2243 17.4632C37.0574 17.2963 36.8586 17.1647 36.6397 17.0763C36.4208 16.9879 36.1864 16.9445 35.9503 16.9486C35.7143 16.9528 35.4815 17.0044 35.2659 17.1005C35.0503 17.1966 34.8562 17.3351 34.6953 17.5078L24.0859 28.125C23.4902 28.6933 22.6984 29.0104 21.875 29.0104C21.0516 29.0104 20.2598 28.6933 19.6641 28.125C14.9531 23.4375 15.0391 23.25 14.0625 23.25Z" fill="#2E58FF"/>
</g>
<defs>
<clipPath id="clip0_902_811">
<rect width="50" height="50" fill="white"/>
</clipPath>
</defs>
</svg>
