<svg width="64" height="64" viewBox="0 0 64 64" fill="none" xmlns="http://www.w3.org/2000/svg">
<g clip-path="url(#clip0_902_901)">
<path d="M22 18V40H6C4.93913 40 3.92172 39.5786 3.17157 38.8284C2.42143 38.0783 2 37.0609 2 36V22C2 20.9391 2.42143 19.9217 3.17157 19.1716C3.92172 18.4214 4.93913 18 6 18H22Z" fill="#8BC4FF"/>
<path d="M46 7V51L22 40V18L46 7Z" fill="#D1E7FF"/>
<path d="M14.8 61H8.8C8.3009 61.0023 7.81899 60.8178 7.44894 60.4829C7.07888 60.148 6.84741 59.6868 6.8 59.19L5 40H15C16.35 54.23 16.8 59 16.79 58.81C16.8165 59.0873 16.7847 59.3671 16.6967 59.6315C16.6088 59.8958 16.4666 60.1388 16.2792 60.345C16.0919 60.5512 15.8635 60.716 15.6088 60.8287C15.3541 60.9415 15.0786 60.9999 14.8 61Z" fill="#D1E7FF"/>
<path d="M50 55C48.9391 55 47.9217 54.5786 47.1716 53.8284C46.4214 53.0783 46 52.0609 46 51V7C46 5.93913 46.4214 4.92172 47.1716 4.17157C47.9217 3.42143 48.9391 3 50 3C51.0609 3 52.0783 3.42143 52.8284 4.17157C53.5786 4.92172 54 5.93913 54 7V51C54 52.0609 53.5786 53.0783 52.8284 53.8284C52.0783 54.5786 51.0609 55 50 55Z" fill="#A2D0FF"/>
<path d="M54 37C56.1217 37 58.1566 36.1571 59.6569 34.6569C61.1571 33.1566 62 31.1217 62 29C62 26.8783 61.1571 24.8434 59.6569 23.3431C58.1566 21.8429 56.1217 21 54 21V37Z" fill="#8BC4FF"/>
<path d="M22 40V50H15.95L15 40H22Z" fill="#A2D0FF"/>
<path d="M64 29C64.0005 26.6947 63.2044 24.46 61.7466 22.6742C60.2888 20.8884 58.2587 19.6611 56 19.2V7C55.996 5.53007 55.4526 4.11275 54.4728 3.01697C53.493 1.9212 52.145 1.22322 50.6847 1.05547C49.2244 0.887734 47.7533 1.2619 46.5506 2.10699C45.3478 2.95207 44.4972 4.20926 44.16 5.64L21.56 16H6C4.4087 16 2.88258 16.6321 1.75736 17.7574C0.632141 18.8826 2.92372e-07 20.4087 2.92372e-07 22V36C-0.000335236 37.075 0.288126 38.1303 0.835223 39.0556C1.38232 39.9809 2.16796 40.7422 3.11 41.26L4.84 59.38C4.93482 60.3737 5.39775 61.296 6.13787 61.9658C6.87799 62.6356 7.8418 63.0045 8.84 63H14.84C15.3989 63.0025 15.952 62.8879 16.4639 62.6636C16.9757 62.4392 17.4349 62.1101 17.8117 61.6974C18.1886 61.2848 18.4748 60.7977 18.6519 60.2677C18.829 59.7376 18.8931 59.1763 18.84 58.62L18.15 52H22C22.5304 52 23.0391 51.7893 23.4142 51.4142C23.7893 51.0391 24 50.5304 24 50V43.12L44.16 52.36C44.4972 53.7907 45.3478 55.0479 46.5506 55.893C47.7533 56.7381 49.2244 57.1123 50.6847 56.9445C52.145 56.7768 53.493 56.0788 54.4728 54.983C55.4526 53.8873 55.996 52.4699 56 51V38.8C58.2587 38.3389 60.2888 37.1116 61.7466 35.3258C63.2044 33.54 64.0005 31.3053 64 29V29ZM4 22C4 21.4696 4.21071 20.9609 4.58579 20.5858C4.96086 20.2107 5.46957 20 6 20H20V38H6C5.46957 38 4.96086 37.7893 4.58579 37.4142C4.21071 37.0391 4 36.5304 4 36V22ZM8.82 59L7.2 42H13.2C13.25 42.47 14.71 57.79 14.82 59H8.82ZM20 48H17.77L17.2 42H20V48ZM24 19.28L44 10.12V47.88L24 38.72V19.28ZM52 51C52 51.5304 51.7893 52.0391 51.4142 52.4142C51.0391 52.7893 50.5304 53 50 53C49.4696 53 48.9609 52.7893 48.5858 52.4142C48.2107 52.0391 48 51.5304 48 51V7C48 6.46957 48.2107 5.96086 48.5858 5.58579C48.9609 5.21072 49.4696 5 50 5C50.5304 5 51.0391 5.21072 51.4142 5.58579C51.7893 5.96086 52 6.46957 52 7V51ZM56 34.66V23.34C57.172 23.7523 58.1871 24.5182 58.9052 25.532C59.6233 26.5459 60.0089 27.7576 60.0089 29C60.0089 30.2424 59.6233 31.4541 58.9052 32.468C58.1871 33.4818 57.172 34.2477 56 34.66V34.66Z" fill="#2E58FF"/>
</g>
<defs>
<clipPath id="clip0_902_901">
<rect width="64" height="64" fill="white"/>
</clipPath>
</defs>
</svg>
