<svg width="64" height="64" viewBox="0 0 64 64" fill="none" xmlns="http://www.w3.org/2000/svg">
<path d="M35.9886 27.8417C35.9886 27.8417 36.8242 17.4639 44.7476 8.73017C46.5662 6.72565 49.5147 6.49111 51.1947 8.21158C52.5908 9.64217 52.668 11.9928 51.3784 13.8293C47.8011 18.8677 43.5097 23.3588 38.639 27.1612L35.9886 27.8417Z" fill="#A2D0FF"/>
<path d="M37.4211 27.0408C37.4211 27.0408 44.9148 20.2568 56.3279 19.3496C58.9474 19.1415 61.1889 20.9368 61.2325 23.271C61.2689 25.2113 59.7596 26.9254 57.6259 27.3666C51.7446 28.5506 45.7223 28.8725 39.7483 28.3223L37.4211 27.0408Z" fill="#A2D0FF"/>
<path d="M39.8741 32.364C39.77 33.7545 39.8112 35.1519 39.9968 36.5338C40.6613 37.5486 40.8787 38.5244 40.5506 39.4526C40.8312 40.5445 41.2006 41.6117 41.6551 42.6434C42.6453 43.3547 43.1838 44.4574 43.4396 45.8057C44.1194 46.7705 44.8959 47.6634 45.757 48.4706C47.0746 49.0374 48.0435 49.7159 48.4772 50.5668C49.7048 51.3348 51.0094 51.9725 52.3697 52.4693C52.7012 52.5894 53.058 52.6225 53.406 52.5653C53.754 52.5082 54.0814 52.3627 54.3572 52.1429C54.6329 51.9231 54.8476 51.6362 54.9808 51.3097C55.114 50.9832 55.1612 50.628 55.1179 50.278C54.9899 49.2397 54.7945 47.9976 54.4967 46.6451C53.8261 45.7496 53.4484 44.7501 53.6653 43.5392C53.2838 42.3328 52.8239 41.1525 52.2885 40.006C51.1115 39.5066 50.5323 38.5047 50.5826 36.9736C49.8835 35.9239 49.0783 34.9489 48.1796 34.0642C46.9799 33.9337 46.1227 33.1561 45.4927 31.9494C44.1161 31.0966 42.6138 30.4658 41.0411 30.08L39.8741 32.364Z" fill="#2E58FF"/>
<path d="M29.9545 28.6961C31.7464 28.6961 33.1989 27.2435 33.1989 25.4517C33.1989 23.6598 31.7464 22.2072 29.9545 22.2072C28.1627 22.2072 26.7101 23.6598 26.7101 25.4517C26.7101 27.2435 28.1627 28.6961 29.9545 28.6961Z" fill="#2E58FF"/>
<path d="M32.1365 27.5917C31.9348 28.03 31.7852 28.4904 31.6908 28.9636C31.5247 29.767 31.5882 30.6009 31.8739 31.37C32.4243 32.8277 33.8909 35.0594 37.6761 34.7112C38.3118 34.6593 38.9215 34.4356 39.4399 34.0639C39.9583 33.6923 40.366 33.1867 40.6192 32.6012C40.641 32.5493 40.6623 32.4961 40.683 32.4418C41.1451 31.2521 41.1794 29.9387 40.7798 28.7266C40.3803 27.5144 39.5718 26.4788 38.4928 25.7971C38.4646 25.7794 38.4361 25.7618 38.4074 25.7442C36.174 24.3838 33.2322 25.2168 32.1365 27.5917Z" fill="#2E58FF"/>
<path d="M48.1786 34.0642C47.3629 33.2634 46.4622 32.5542 45.4925 31.949C45.1796 33.1784 44.4866 34.2778 43.5122 35.0903C42.5031 35.8984 41.2831 36.3994 39.9973 36.5338C40.1188 37.5173 40.3039 38.4919 40.5515 39.4515C41.7044 39.4737 43.5156 39.2856 45.1655 38.1598C46.8329 37.0231 47.724 35.3045 48.1786 34.0642Z" fill="#A2D0FF"/>
<path d="M50.5817 36.9734C49.7816 38.6651 48.5185 40.0956 46.9389 41.099C45.3592 42.1025 43.5275 42.6378 41.6561 42.643C42.1454 43.753 42.7432 44.8119 43.4408 45.8042C45.2072 45.6053 46.9085 45.0211 48.4245 44.093C50.0507 43.0957 51.3837 41.6854 52.2878 40.0056C51.7965 38.9533 51.2261 37.9396 50.5817 36.9734V36.9734Z" fill="#A2D0FF"/>
<path d="M54.4963 46.6447C54.2786 45.6567 54.0069 44.6097 53.6649 43.5388C52.8997 44.9854 51.7652 46.2037 50.3765 47.0696C48.9879 47.9356 47.3948 48.4184 45.759 48.4691C46.5968 49.2528 47.5076 49.9546 48.479 50.5647C50.8796 49.9969 53.0074 48.6108 54.4969 46.6445L54.4963 46.6447Z" fill="#A2D0FF"/>
<path d="M15.3638 37.7425C13.5526 33.5662 12.0756 29.2528 10.9466 24.8429C10.8876 24.612 10.7534 24.4073 10.5652 24.2612C10.377 24.115 10.1454 24.0356 9.9071 24.0356C9.66878 24.0356 9.43725 24.115 9.24902 24.2612C9.06079 24.4073 8.92659 24.612 8.86757 24.8429C7.73848 29.2528 6.26148 33.5662 4.45045 37.7425C4.45045 37.7425 1.38635 44.3744 3.52696 48.4038C3.54861 48.4444 3.57026 48.4845 3.59228 48.5242C6.33468 53.4912 13.4793 53.4912 16.2229 48.5242C16.2448 48.4845 16.2665 48.4443 16.288 48.4038C18.4282 44.3744 15.3638 37.7425 15.3638 37.7425Z" fill="url(#paint0_linear_916_993)"/>
<path d="M7.87526 47.188C8.87054 46.8076 9.29195 45.4907 8.81651 44.2467C8.34108 43.0026 7.14883 42.3024 6.15355 42.6828C5.15827 43.0631 4.73686 44.38 5.2123 45.6241C5.68774 46.8681 6.87999 47.5683 7.87526 47.188Z" fill="#A2D0FF"/>
<path d="M60.3917 20.0418C59.8333 19.5491 59.1803 19.1754 58.4727 18.9435C57.7651 18.7116 57.0176 18.6264 56.2759 18.6931C48.0312 19.3481 41.83 22.9617 38.7388 25.1755C38.2733 24.8937 37.7659 24.6876 37.2357 24.5651C38.0935 20.956 40.2098 14.713 45.2357 9.17271C45.6226 8.73457 46.0946 8.37976 46.623 8.12987C47.1514 7.87998 47.7251 7.74024 48.3092 7.71915C48.7555 7.70373 49.2001 7.78035 49.6154 7.94425C50.0308 8.10815 50.4079 8.35581 50.7233 8.67181C51.8932 9.87031 51.942 11.8803 50.8393 13.4507C49.606 15.2003 48.2789 16.8818 46.8638 18.4879C46.8067 18.5529 46.7629 18.6285 46.7351 18.7105C46.7072 18.7924 46.6957 18.879 46.7013 18.9653C46.7069 19.0517 46.7294 19.1361 46.7677 19.2137C46.8059 19.2913 46.859 19.3607 46.924 19.4178C46.989 19.4749 47.0646 19.5186 47.1466 19.5465C47.2285 19.5744 47.3151 19.5858 47.4014 19.5803C47.4878 19.5747 47.5722 19.5521 47.6498 19.5139C47.7274 19.4757 47.7968 19.4226 47.8539 19.3576C49.3002 17.7155 50.6568 15.9964 51.9177 14.208C53.3846 12.1186 53.2788 9.40329 51.666 7.75153C51.2258 7.30579 50.6983 6.95581 50.1165 6.72356C49.5346 6.49131 48.9111 6.3818 48.285 6.40188C47.5212 6.42649 46.7704 6.60638 46.0784 6.93058C45.3864 7.25478 44.7677 7.71651 44.2599 8.28762C38.9571 14.1327 36.7755 20.7219 35.9132 24.436C35.4678 24.4505 35.0263 24.5235 34.6001 24.6532C34.333 24.7348 34.0734 24.8387 33.8238 24.9638C33.7043 24.0214 33.2455 23.1549 32.5333 22.5263C31.8211 21.8977 30.9043 21.5501 29.9544 21.5486C28.2642 21.5486 26.0905 22.9841 26.0512 25.4519C26.0494 25.7065 26.0746 25.9607 26.1265 26.2101C26.1481 26.7791 26.0102 27.3428 25.7283 27.8376C25.4994 28.2383 25.2257 28.7021 24.9152 29.2026L24.8948 29.2343C24.8937 29.236 24.8931 29.238 24.892 29.2397C23.5953 31.3246 21.6587 34.0344 19.5838 35.5219C19.4417 35.6237 19.346 35.7777 19.3175 35.9501C19.2891 36.1225 19.3303 36.2992 19.4321 36.4412C19.5338 36.5833 19.6879 36.679 19.8603 36.7075C20.0327 36.7359 20.2094 36.6947 20.3514 36.5929C22.6004 34.9809 24.6554 32.1129 26.0173 29.9268L26.7226 28.8303C26.7744 28.7493 26.8421 28.6796 26.9215 28.6254C27.001 28.5712 27.0906 28.5337 27.1849 28.515C27.3217 28.4879 27.4634 28.5007 27.5932 28.5517C27.8796 28.771 28.195 28.9494 28.5304 29.082L28.5803 29.1048C28.6109 29.1171 28.6423 29.1272 28.6744 29.1349C29.086 29.2799 29.519 29.3544 29.9553 29.3553C30.3028 29.3552 30.6488 29.309 30.9841 29.2177C30.9155 29.7612 30.9358 30.3122 31.0441 30.8491V30.8506V30.8523C31.061 30.9353 31.0817 31.0176 31.1019 31.0995C30.4964 33.7609 29.5912 36.345 28.4035 38.8024C27.9152 39.8084 27.7065 40.9272 27.7993 42.0416C28.0406 44.8198 28.4835 51.5663 27.3903 54.2027C27.3571 54.2827 27.3401 54.3683 27.34 54.4549C27.34 54.5414 27.357 54.6271 27.3901 54.707C27.4232 54.787 27.4717 54.8596 27.5329 54.9208C27.594 54.982 27.6667 55.0306 27.7466 55.0637C27.8265 55.0969 27.9122 55.1139 27.9987 55.1139C28.0853 55.114 28.1709 55.097 28.2509 55.0639C28.3308 55.0308 28.4035 54.9823 28.4647 54.9211C28.5259 54.8599 28.5744 54.7873 28.6076 54.7074C29.7688 51.9068 29.4221 45.4984 29.1121 41.9275C29.0397 41.0488 29.205 40.1668 29.5905 39.3739C30.5373 37.4039 31.316 35.3574 31.9183 33.2563C32.4645 34.4531 33.1449 35.584 33.9465 36.6272C34.4491 37.2788 34.6846 38.0974 34.6053 38.9165C34.2723 42.454 33.6229 51.3041 34.7804 57.0694C34.8152 57.2403 34.9163 57.3904 35.0617 57.4869C35.207 57.5833 35.3846 57.6182 35.5557 57.5839C35.7267 57.5495 35.8771 57.4488 35.9739 57.3037C36.0708 57.1586 36.1061 56.9811 36.0722 56.81C34.9492 51.2162 35.5896 42.5195 35.9171 39.0406C36.0279 37.8891 35.6962 36.7386 34.9893 35.8229C34.7612 35.5272 34.5515 35.2314 34.3574 34.9382C35.1636 35.2609 36.0258 35.4203 36.8941 35.4071C37.1626 35.4071 37.4436 35.3938 37.737 35.3673C38.2429 35.3209 38.7367 35.1856 39.1956 34.9677C39.4526 39.7602 41.3901 49.1136 52.1419 53.0869C52.5795 53.2463 53.0507 53.2907 53.5104 53.2159C53.97 53.141 54.4028 52.9494 54.7672 52.6594C55.1316 52.3693 55.4154 51.9906 55.5915 51.5594C55.7676 51.1283 55.83 50.6591 55.7728 50.1969C55.4076 47.2348 54.533 42.8576 52.441 38.8258C49.9164 33.9601 46.2825 30.8435 41.6402 29.5569C41.6184 29.4095 41.5907 29.2632 41.5585 29.1181C42.8967 29.2 44.1923 29.239 45.4343 29.239C49.5738 29.2465 53.7034 28.8353 57.7602 28.0117C60.1963 27.508 61.9341 25.5081 61.8919 23.2587C61.877 22.6481 61.7361 22.0471 61.4779 21.4935C61.2197 20.9399 60.8499 20.4457 60.3917 20.0418V20.0418ZM28.2787 27.4176C27.8624 27.0622 27.1149 25.8283 27.4991 24.6447C27.6907 24.0604 28.0844 23.5636 28.6094 23.2435C29.1344 22.9234 29.7564 22.8009 30.3636 22.8981C30.9707 22.9953 31.5234 23.3058 31.9222 23.7739C32.321 24.2419 32.54 24.8368 32.5396 25.4517C32.5397 25.6066 32.5259 25.7613 32.4986 25.9138C32.4986 25.9191 32.4986 25.9241 32.4975 25.9294C32.1001 26.3328 31.7754 26.8017 31.5375 27.3156C31.4913 27.4153 31.4492 27.5172 31.408 27.6196C31.36 27.6344 30.0647 28.5239 28.2791 27.4176H28.2787ZM37.6152 34.0552C34.5182 34.3405 33.1555 32.7552 32.5554 31.3028C32.4146 30.8932 32.3448 30.6266 32.3296 30.5641C32.2354 30.0783 32.2376 29.5786 32.3361 29.0936C32.4209 28.6709 32.5545 28.2595 32.7345 27.8677C32.948 27.4002 33.2592 26.9838 33.6472 26.6467C34.0352 26.3096 34.4909 26.0596 34.9837 25.9134C35.3331 25.7791 35.7079 25.7234 36.0813 25.7502C39.8304 26.3091 41.203 30.1867 40.0672 32.2067C39.4204 33.3572 38.6945 33.956 37.6158 34.0552H37.6152ZM47.41 34.2197C46.9692 35.2836 46.1701 36.6773 44.7936 37.6166C43.6823 38.3479 42.3886 38.7537 41.0588 38.788C40.9217 38.1975 40.8154 37.6265 40.7335 37.0833C41.906 36.86 43.0049 36.3496 43.9318 35.5977C44.7824 34.895 45.4411 33.9884 45.8467 32.9624C46.3953 33.3465 46.9177 33.7665 47.4106 34.2197H47.41ZM43.0915 34.583C42.3597 35.1749 41.4964 35.5824 40.5743 35.7713C40.514 35.1174 40.4877 34.5274 40.4801 34.0218C41.4543 32.963 41.6416 31.5256 41.6865 30.9429C42.739 31.263 43.7527 31.6991 44.7089 32.2432C44.3948 33.1567 43.8355 33.9662 43.0921 34.583H43.0915ZM51.5621 39.9539C50.7147 41.4182 49.5165 42.6488 48.0753 43.5349C46.7543 44.3461 45.2806 44.8769 43.7458 45.0944C43.3492 44.5032 42.9888 43.8884 42.6667 43.2535C44.3822 43.078 46.0298 42.4903 47.4691 41.5405C48.7594 40.6914 49.8416 39.5624 50.6353 38.2374C50.9714 38.7979 51.28 39.3719 51.5631 39.9539H51.5621ZM44.6162 46.2786C46.0893 45.9926 47.4981 45.4414 48.7742 44.6519C50.13 43.8125 51.2987 42.7032 52.2076 41.3929C52.4591 42.0034 52.6859 42.6176 52.8903 43.2292C52.2381 44.3555 51.3334 45.3152 50.2475 46.0328C48.9624 46.8896 47.4704 47.385 45.9281 47.4671C45.8562 47.4715 45.7856 47.4877 45.7191 47.5151C45.3227 47.1123 44.9551 46.6998 44.6164 46.2776L44.6162 46.2786ZM53.7925 46.4794C52.4617 48.1301 50.6391 49.3133 48.5897 49.8571C48.0356 49.496 47.5023 49.1038 46.9925 48.6824C48.4123 48.4577 49.7673 47.9309 50.966 47.1375C51.9005 46.5255 52.7197 45.7533 53.3858 44.8565C53.5373 45.4054 53.6728 45.9482 53.7927 46.4785L53.7925 46.4794ZM53.939 51.6348C53.7541 51.7855 53.5328 51.8848 53.2974 51.9229C53.062 51.961 52.8207 51.9364 52.5978 51.8517C51.7457 51.538 50.9149 51.1693 50.1106 50.7477C50.7652 50.4955 51.394 50.1811 51.9885 49.8088C52.7647 49.3246 53.4805 48.7496 54.1204 48.0958C54.2654 48.8966 54.3778 49.6582 54.4643 50.3593C54.4943 50.5991 54.4617 50.8424 54.3696 51.0658C54.2776 51.2891 54.1293 51.4849 53.9392 51.6339L53.939 51.6348ZM49.8289 36.9952C49.1138 38.3873 48.0534 39.5726 46.7491 40.4376C45.3581 41.3603 43.7444 41.8917 42.0773 41.9761C41.8215 41.3588 41.5972 40.7289 41.4053 40.0888C42.8805 40.0016 44.3062 39.5244 45.5367 38.7061C46.9673 37.7303 47.8622 36.3704 48.4079 35.2196C48.9189 35.7803 49.3936 36.3731 49.829 36.9943L49.8289 36.9952ZM57.4925 26.7223C52.0981 27.8105 46.5812 28.1629 41.0923 27.7698C40.7785 27.1164 40.3516 26.5237 39.8311 26.0192C42.9039 23.8765 48.7303 20.6168 56.3809 20.0083C56.9434 19.9561 57.5107 20.0188 58.0481 20.1927C58.5856 20.3666 59.0821 20.648 59.5073 21.0199C59.8316 21.3036 60.0938 21.6513 60.2775 22.0412C60.4611 22.431 60.5623 22.8545 60.5746 23.2853C60.6042 24.9001 59.3082 26.346 57.4927 26.7213L57.4925 26.7223Z" fill="#2E58FF"/>
<path d="M32.7742 38.1643C32.6052 38.1202 32.4256 38.145 32.2749 38.2332C32.1242 38.3215 32.0147 38.466 31.9705 38.6349C31.92 38.8269 30.7441 43.3928 31.1181 48.009C31.1315 48.1739 31.2064 48.3277 31.3279 48.4399C31.4495 48.552 31.6087 48.6144 31.7741 48.6146C31.792 48.6146 31.8099 48.6146 31.828 48.6125C31.9142 48.6055 31.9982 48.5816 32.0753 48.5422C32.1523 48.5027 32.2207 48.4484 32.2768 48.3825C32.3328 48.3166 32.3753 48.2403 32.4019 48.1579C32.4284 48.0755 32.4385 47.9887 32.4314 47.9025C32.0759 43.5155 33.2335 39.0131 33.2452 38.9681C33.2893 38.7991 33.2645 38.6194 33.1761 38.4687C33.0878 38.318 32.9433 38.2085 32.7742 38.1643V38.1643Z" fill="#2E58FF"/>
<path d="M38.3909 43.2817C38.399 45.6461 38.592 51.4963 40.2061 54.7479C40.2852 54.9019 40.4218 55.0187 40.5863 55.0728C40.7508 55.1269 40.9301 55.114 41.0852 55.037C41.2403 54.96 41.3589 54.825 41.4152 54.6612C41.4715 54.4974 41.4611 54.318 41.3861 54.1619C39.8951 51.1582 39.7163 45.5494 39.7086 43.2774C39.7074 42.5799 39.5879 41.8876 39.3551 41.2301C38.8951 39.9307 38.5216 38.6023 38.237 37.2536C38.2214 37.1679 38.1889 37.086 38.1414 37.0129C38.094 36.9398 38.0325 36.8768 37.9605 36.8276C37.8885 36.7784 37.8075 36.7439 37.7221 36.7263C37.6367 36.7087 37.5487 36.7081 37.4631 36.7248C37.3775 36.7414 37.2961 36.7748 37.2235 36.8232C37.151 36.8715 37.0887 36.9338 37.0404 37.0063C36.9921 37.0789 36.9586 37.1603 36.942 37.2459C36.9254 37.3315 36.9259 37.4196 36.9436 37.5049C37.2389 38.9184 37.6297 40.3103 38.1133 41.671C38.2963 42.1883 38.3901 42.7329 38.3909 43.2817V43.2817Z" fill="#2E58FF"/>
<path d="M2.94508 48.7127C2.96861 48.7569 2.99233 48.8008 3.01548 48.8427C3.68755 50.0817 4.68389 51.1145 5.89786 51.8307C7.11182 52.5469 8.4977 52.9195 9.90715 52.9086C11.3162 52.9196 12.7018 52.5472 13.9155 51.8314C15.1293 51.1155 16.1255 50.0831 16.7977 48.8446C16.8218 48.8011 16.8455 48.7573 16.8688 48.7128C19.1222 44.471 16.1313 37.8345 15.9653 37.4722C14.1712 33.3294 12.7066 29.0516 11.5851 24.6786C11.4896 24.3062 11.2729 23.9763 10.9692 23.7406C10.6655 23.505 10.292 23.3771 9.90762 23.3771C9.52323 23.3771 9.14976 23.505 8.84605 23.7406C8.54235 23.9763 8.32567 24.3062 8.23016 24.6786C7.1094 29.0495 5.64573 33.3252 3.85275 37.466C3.72155 37.7491 0.677599 44.4439 2.94508 48.7127ZM5.05332 38.007C6.87733 33.7975 8.36613 29.4507 9.50583 25.0069C9.52848 24.9176 9.58024 24.8384 9.65294 24.7818C9.72565 24.7253 9.81513 24.6945 9.90725 24.6945C9.99936 24.6945 10.0888 24.7253 10.1615 24.7818C10.2342 24.8384 10.286 24.9176 10.3087 25.0069C11.4482 29.4506 12.9368 33.7974 14.7606 38.0068C14.7621 38.0105 14.764 38.0147 14.7657 38.0183C14.7951 38.0817 17.6662 44.4038 15.7054 48.0949C15.6865 48.1316 15.6662 48.1681 15.6453 48.2056C15.0857 49.237 14.2561 50.0969 13.2454 50.6931C12.2347 51.2894 11.0808 51.5995 9.90734 51.5904C8.73358 51.5995 7.57945 51.2892 6.56852 50.6927C5.5576 50.0961 4.72795 49.2359 4.16842 48.2041C4.14828 48.1681 4.1287 48.1316 4.10894 48.0945C2.1479 44.4047 5.01925 38.0819 5.05369 38.007H5.05332Z" fill="#2E58FF"/>
<defs>
<linearGradient id="paint0_linear_916_993" x1="9.90701" y1="26.9239" x2="9.90701" y2="59.6431" gradientUnits="userSpaceOnUse">
<stop stop-color="#FF6185"/>
<stop offset="1" stop-color="#E2407A"/>
</linearGradient>
</defs>
</svg>
