<svg width="64" height="64" viewBox="0 0 64 64" fill="none" xmlns="http://www.w3.org/2000/svg">
<path d="M46.41 30.91H46.22C44.1614 30.7055 42.2603 29.7174 40.91 28.15C40.735 27.9498 40.6467 27.6882 40.6645 27.4228C40.6823 27.1575 40.8048 26.91 41.005 26.735C41.2053 26.56 41.4669 26.4716 41.7322 26.4894C41.9976 26.5073 42.245 26.6298 42.42 26.83C43.4098 27.9747 44.7885 28.7122 46.29 28.9C46.9141 28.8986 47.5305 28.762 48.0967 28.4996C48.6629 28.2372 49.1656 27.8552 49.57 27.38C51.29 25.67 53 24.84 54.79 25C55.4899 25.0598 56.171 25.2576 56.7941 25.582C57.4171 25.9064 57.9697 26.3509 58.42 26.89C58.5629 27.1007 58.62 27.3579 58.5798 27.6093C58.5396 27.8606 58.405 28.0871 58.2035 28.2427C58.0021 28.3983 57.7488 28.4712 57.4955 28.4465C57.2421 28.4218 57.0077 28.3015 56.84 28.11C56.2763 27.4715 55.4886 27.0741 54.64 27C53.9404 27.03 53.2548 27.2066 52.6278 27.5184C52.0007 27.8302 51.4462 28.2702 51 28.81C50.4173 29.4529 49.7099 29.9706 48.9208 30.3316C48.1318 30.6926 47.2775 30.8894 46.41 30.91V30.91Z" fill="#2E58FF"/>
<path d="M36.52 23.35C36.2863 23.3505 36.0599 23.2691 35.88 23.12C34.309 21.7747 33.3051 19.8849 33.07 17.83C33.0528 16.9214 33.2314 16.0197 33.5938 15.1862C33.9562 14.3528 34.4937 13.6071 35.17 13C36.47 11.7 37.09 10.46 37.02 9.31C36.9425 8.47094 36.545 7.6939 35.91 7.14C35.797 7.06339 35.7009 6.96445 35.6276 6.84929C35.5543 6.73412 35.5053 6.60517 35.4838 6.47037C35.4622 6.33557 35.4684 6.19778 35.5021 6.06549C35.5358 5.9332 35.5963 5.80921 35.6797 5.70116C35.7631 5.59311 35.8678 5.50329 35.9873 5.43722C36.1067 5.37116 36.2384 5.33025 36.3743 5.31703C36.5102 5.3038 36.6473 5.31854 36.7773 5.36032C36.9072 5.40211 37.0273 5.47006 37.13 5.56C37.6658 6.01172 38.1069 6.56504 38.4279 7.18806C38.7488 7.81108 38.9433 8.49147 39 9.19C39.11 10.94 38.29 12.7 36.57 14.42C36.096 14.8321 35.7153 15.3404 35.4532 15.9112C35.1911 16.4819 35.0536 17.102 35.05 17.73C35.2576 19.224 36.0002 20.592 37.14 21.58C37.2985 21.7114 37.4127 21.8885 37.4668 22.0872C37.5209 22.2859 37.5124 22.4964 37.4424 22.69C37.3723 22.8837 37.2442 23.051 37.0756 23.1691C36.9069 23.2872 36.7059 23.3504 36.5 23.35H36.52Z" fill="#2E58FF"/>
<path d="M11.3099 32.22H10.8599C9.84251 32.1346 8.85207 31.8485 7.94582 31.3782C7.03957 30.9079 6.23546 30.2628 5.57994 29.48C5.41683 29.2705 5.34364 29.0047 5.37645 28.7413C5.40927 28.4778 5.54542 28.2381 5.75494 28.075C5.96446 27.9119 6.2302 27.8387 6.49368 27.8715C6.75717 27.9043 6.99683 28.0405 7.15994 28.25C8.13423 29.3921 9.51529 30.1096 11.0099 30.25C13.0099 30.37 15.0799 29.33 17.2499 27.16C18.1265 26.186 19.1941 25.4029 20.3863 24.8592C21.5785 24.3156 22.8698 24.0231 24.1799 24C28.1799 24.07 31.1799 27 32.0499 27.93C32.15 28.0237 32.2298 28.1369 32.2843 28.2627C32.3388 28.3885 32.3668 28.5242 32.3667 28.6613C32.3665 28.7984 32.3382 28.934 32.2834 29.0597C32.2286 29.1854 32.1486 29.2984 32.0483 29.3919C31.948 29.4853 31.8295 29.5572 31.7003 29.6029C31.571 29.6486 31.4337 29.6673 31.297 29.6577C31.1602 29.6482 31.0269 29.6106 30.9052 29.5473C30.7836 29.4841 30.6763 29.3965 30.5899 29.29C29.8799 28.53 27.3399 26.05 24.1399 26C23.0977 26.0245 22.0718 26.2647 21.1269 26.7053C20.1821 27.1459 19.3387 27.7774 18.6499 28.56C16.2099 31 13.7499 32.22 11.3099 32.22Z" fill="#2E58FF"/>
<path d="M35.16 58.64C34.939 58.6393 34.7245 58.5655 34.55 58.43C33.7668 57.7748 33.1213 56.9708 32.651 56.0645C32.1807 55.1582 31.8948 54.1676 31.81 53.15C31.65 50.57 32.88 47.95 35.48 45.35C36.2531 44.658 36.8758 43.8145 37.3093 42.8718C37.7428 41.9291 37.9779 40.9074 38 39.87C37.94 36.68 35.46 34.13 34.71 33.42C34.5447 33.2299 34.4573 32.9844 34.4652 32.7326C34.473 32.4808 34.5757 32.2412 34.7526 32.0618C34.9294 31.8825 35.1675 31.7764 35.4191 31.765C35.6708 31.7535 35.9175 31.8374 36.11 32C37.01 32.84 39.97 35.9 40.04 39.87C40.0237 41.1818 39.7353 42.4759 39.1931 43.6705C38.6509 44.8651 37.8666 45.9341 36.89 46.81C34.72 48.98 33.68 51.09 33.8 53.07C33.9386 54.5567 34.6571 55.929 35.8 56.89C35.9644 57.0177 36.085 57.1935 36.1448 57.3929C36.2045 57.5924 36.2006 57.8055 36.1334 58.0026C36.0662 58.1997 35.9392 58.3709 35.7701 58.4923C35.601 58.6137 35.3982 58.6794 35.19 58.68L35.16 58.64Z" fill="#2E58FF"/>
<path d="M45.63 19.39C45.4313 19.3912 45.2369 19.3331 45.0714 19.2233C44.9058 19.1135 44.7768 18.9569 44.7006 18.7735C44.6244 18.59 44.6046 18.3881 44.6437 18.1933C44.6828 17.9986 44.7789 17.8199 44.92 17.68L47.85 14.75C48.0413 14.5862 48.2873 14.5006 48.539 14.5103C48.7907 14.52 49.0294 14.6243 49.2075 14.8024C49.3856 14.9805 49.49 15.2193 49.4997 15.4709C49.5094 15.7226 49.4238 15.9687 49.26 16.16L46.33 19.1C46.1437 19.2847 45.8923 19.3889 45.63 19.39Z" fill="#2E58FF"/>
<path d="M45.6205 23.462C47.0185 22.0639 47.0185 19.7972 45.6204 18.3991C44.2224 17.001 41.9556 17.001 40.5576 18.3991C39.1595 19.7971 39.1595 22.0639 40.5576 23.462C41.9556 24.86 44.2224 24.86 45.6205 23.462Z" fill="#2E58FF"/>
<path d="M36.52 22.35C36.0865 22.452 35.6738 22.6279 35.3 22.87C35.0278 23.0367 34.7761 23.2347 34.55 23.46L32.55 25.46C32.3375 25.6751 32.1497 25.9133 31.99 26.17V26.17C31.537 26.8791 31.3104 27.7091 31.34 28.55C31.3702 29.6278 31.8119 30.6532 32.5743 31.4157C33.3368 32.1781 34.3621 32.6198 35.44 32.65C36.2775 32.6776 37.1037 32.451 37.81 32C38.0821 31.8333 38.3339 31.6353 38.56 31.41L39.56 30.41L40.56 29.41C40.7852 29.1839 40.9832 28.9322 41.15 28.66C41.392 28.2862 41.5679 27.8735 41.67 27.44C41.7536 27.1132 41.7973 26.7774 41.8 26.44C41.8015 25.7951 41.6555 25.1584 41.3732 24.5786C41.091 23.9988 40.6799 23.4912 40.1713 23.0946C39.6628 22.698 39.0704 22.423 38.4392 22.2904C37.8081 22.1579 37.1551 22.1714 36.53 22.33L36.52 22.35Z" fill="#2E58FF"/>
<path d="M25.41 30.4L32 37L33.62 38.62C34.2244 37.4733 34.4458 36.1633 34.2519 34.8817C34.058 33.6001 33.4589 32.4142 32.5424 31.4977C31.6258 30.5811 30.4399 29.9821 29.1583 29.7881C27.8767 29.5942 26.5667 29.8156 25.42 30.42L25.41 30.4Z" fill="#2E58FF"/>
<path d="M22.22 33.2324L19.2078 36.2447L27.7779 44.8148L30.7902 41.8026L22.22 33.2324Z" fill="#2E58FF"/>
<path d="M16.57 47.45C17.6433 48.5235 19.0803 49.1551 20.5969 49.2199C22.1134 49.2847 23.5991 48.778 24.76 47.8L16.23 39.27C15.2536 40.429 14.7469 41.9119 14.8098 43.4261C14.8727 44.9403 15.5008 46.376 16.57 47.45Z" fill="#2E58FF"/>
<path d="M25.4501 30.4C24.9413 30.6652 24.4732 31.0019 24.06 31.4L22.3 33.16L30.83 41.69L32.03 40.49L32.59 39.93C32.9881 39.5169 33.3249 39.0488 33.59 38.54V38.54L32 37L25.4501 30.4Z" fill="#A2D0FF"/>
<path d="M16.57 38.88C16.44 39.01 16.33 39.13 16.22 39.26L24.75 47.79C24.88 47.68 25.01 47.57 25.13 47.44L27.77 44.8L19.2 36.23L16.57 38.88Z" fill="#A2D0FF"/>
<path d="M41.1501 28.71C40.9833 28.9822 40.7853 29.2339 40.5601 29.46L39.5601 30.46L38.5601 31.46C38.3339 31.6853 38.0822 31.8833 37.8101 32.05L50.0601 47C50.4391 47.4545 50.9087 47.8251 51.4389 48.088C51.969 48.351 52.5482 48.5006 53.1394 48.5273C53.7306 48.554 54.3209 48.4573 54.8727 48.2432C55.4244 48.0291 55.9255 47.7024 56.344 47.2839C56.7625 46.8655 57.0892 46.3644 57.3032 45.8126C57.5173 45.2609 57.6141 44.6706 57.5874 44.0794C57.5607 43.4882 57.4111 42.909 57.1481 42.3788C56.8851 41.8486 56.5146 41.379 56.0601 41L41.1501 28.71Z" fill="#A2D0FF"/>
<path d="M23.06 8C22.6809 7.54548 22.2114 7.17493 21.6812 6.91197C21.151 6.649 20.5718 6.49939 19.9806 6.47268C19.3894 6.44597 18.7991 6.54273 18.2474 6.75681C17.6956 6.97089 17.1945 7.29758 16.776 7.71606C16.3576 8.13454 16.0309 8.63563 15.8168 9.18737C15.6027 9.73911 15.5059 10.3294 15.5327 10.9206C15.5594 11.5118 15.709 12.091 15.9719 12.6212C16.2349 13.1514 16.6055 13.621 17.06 14L32 26.21C32.1597 25.9533 32.3475 25.7151 32.56 25.5L34.56 23.5C34.7861 23.2747 35.0378 23.0767 35.31 22.91L32 18.91L23.06 8Z" fill="#A2D0FF"/>
<path d="M51.88 43.79C51.7483 43.7908 51.6179 43.7655 51.496 43.7158C51.3742 43.666 51.2634 43.5927 51.17 43.5L38.85 31.17C38.6861 30.9787 38.6005 30.7326 38.6102 30.481C38.62 30.2293 38.7243 29.9905 38.9024 29.8124C39.0805 29.6343 39.3192 29.53 39.5709 29.5203C39.8226 29.5106 40.0686 29.5962 40.26 29.76L52.59 42.08C52.731 42.2199 52.8272 42.3986 52.8662 42.5933C52.9053 42.7881 52.8855 42.99 52.8093 43.1735C52.7332 43.3569 52.6041 43.5135 52.4386 43.6233C52.273 43.7331 52.0786 43.7912 51.88 43.79V43.79Z" fill="#2E58FF"/>
<path d="M33.5601 25.46C33.4284 25.4608 33.298 25.4355 33.1761 25.3858C33.0543 25.336 32.9435 25.2627 32.8501 25.17L20.5201 12.84C20.3331 12.6517 20.2286 12.3968 20.2295 12.1315C20.2304 11.8661 20.3367 11.612 20.5251 11.425C20.7134 11.238 20.9682 11.1335 21.2336 11.1344C21.499 11.1354 21.7531 11.2417 21.9401 11.43L34.2701 23.75C34.4111 23.8899 34.5073 24.0686 34.5463 24.2633C34.5854 24.4581 34.5656 24.66 34.4894 24.8435C34.4133 25.0269 34.2842 25.1835 34.1187 25.2933C33.9531 25.4031 33.7587 25.4612 33.5601 25.46Z" fill="#2E58FF"/>
<g opacity="0.15">
<path opacity="0.15" d="M45.6205 23.462C47.0185 22.0639 47.0185 19.7972 45.6204 18.3991C44.2224 17.001 41.9556 17.001 40.5576 18.3991C39.1595 19.7971 39.1595 22.0639 40.5576 23.462C41.9556 24.86 44.2224 24.86 45.6205 23.462Z" fill="#E8F3FF"/>
</g>
<g opacity="0.15">
<path opacity="0.15" d="M39.56 30.46L40.56 29.46C40.7853 29.2339 40.9833 28.9822 41.15 28.71C41.3921 28.3362 41.568 27.9235 41.67 27.49C41.7536 27.1632 41.7973 26.8274 41.8 26.49C41.8015 25.8451 41.6555 25.2084 41.3733 24.6286C41.091 24.0488 40.6799 23.5412 40.1714 23.1446C39.6628 22.748 39.0704 22.473 38.4393 22.3404C37.8081 22.2079 37.1551 22.2214 36.53 22.38C36.0965 22.482 35.6838 22.6579 35.31 22.9C35.0378 23.0667 34.7861 23.2647 34.56 23.49L32.56 25.49C32.3475 25.7051 32.1597 25.9433 32 26.2V30.78C32.3675 31.3611 32.873 31.8422 33.4714 32.1807C34.0698 32.5192 34.7427 32.7044 35.43 32.72C36.2783 32.7289 37.1089 32.4776 37.81 32C38.0822 31.8333 38.3339 31.6353 38.56 31.41L39.56 30.46Z" fill="#E8F3FF"/>
</g>
<g opacity="0.15">
<path opacity="0.15" d="M41.1501 28.71C40.9833 28.9822 40.7853 29.2339 40.5601 29.46L39.5601 30.46L51.8801 42.78L39.5601 30.46L38.5601 31.46C38.3339 31.6853 38.0822 31.8833 37.8101 32.05L50.0601 47C50.4391 47.4545 50.9087 47.8251 51.4389 48.088C51.969 48.351 52.5482 48.5006 53.1394 48.5273C53.7306 48.554 54.3209 48.4573 54.8727 48.2432C55.4244 48.0291 55.9255 47.7024 56.344 47.2839C56.7625 46.8655 57.0892 46.3644 57.3032 45.8126C57.5173 45.2609 57.6141 44.6706 57.5874 44.0794C57.5607 43.4882 57.4111 42.909 57.1481 42.3788C56.8851 41.8486 56.5146 41.379 56.0601 41L41.1501 28.71Z" fill="#E8F3FF"/>
</g>
</svg>
