<svg width="64" height="64" viewBox="0 0 64 64" fill="none" xmlns="http://www.w3.org/2000/svg">
<g clip-path="url(#clip0_902_890)">
<path d="M51 2H13C9.68629 2 7 4.68629 7 8V56C7 59.3137 9.68629 62 13 62H51C54.3137 62 57 59.3137 57 56V8C57 4.68629 54.3137 2 51 2Z" fill="#D1E7FF"/>
<path d="M13 2H51C52.5913 2 54.1174 2.63214 55.2426 3.75736C56.3679 4.88258 57 6.4087 57 8V14H7V8C7 6.4087 7.63214 4.88258 8.75736 3.75736C9.88258 2.63214 11.4087 2 13 2V2Z" fill="#8BC4FF"/>
<path d="M48 25H26C25.4696 25 24.9609 25.2107 24.5858 25.5858C24.2107 25.9609 24 26.4696 24 27C24 27.5304 24.2107 28.0391 24.5858 28.4142C24.9609 28.7893 25.4696 29 26 29H48C48.5304 29 49.0391 28.7893 49.4142 28.4142C49.7893 28.0391 50 27.5304 50 27C50 26.4696 49.7893 25.9609 49.4142 25.5858C49.0391 25.2107 48.5304 25 48 25Z" fill="#2E58FF"/>
<path d="M48 35H26C25.4696 35 24.9609 35.2107 24.5858 35.5858C24.2107 35.9609 24 36.4696 24 37C24 37.5304 24.2107 38.0391 24.5858 38.4142C24.9609 38.7893 25.4696 39 26 39H48C48.5304 39 49.0391 38.7893 49.4142 38.4142C49.7893 38.0391 50 37.5304 50 37C50 36.4696 49.7893 35.9609 49.4142 35.5858C49.0391 35.2107 48.5304 35 48 35Z" fill="#2E58FF"/>
<path d="M48 45H26C25.4696 45 24.9609 45.2107 24.5858 45.5858C24.2107 45.9609 24 46.4696 24 47C24 47.5304 24.2107 48.0391 24.5858 48.4142C24.9609 48.7893 25.4696 49 26 49H48C48.5304 49 49.0391 48.7893 49.4142 48.4142C49.7893 48.0391 50 47.5304 50 47C50 46.4696 49.7893 45.9609 49.4142 45.5858C49.0391 45.2107 48.5304 45 48 45Z" fill="#2E58FF"/>
<path d="M51 0H13C10.8783 0 8.84344 0.842855 7.34315 2.34315C5.84285 3.84344 5 5.87827 5 8V56C5 58.1217 5.84285 60.1566 7.34315 61.6569C8.84344 63.1571 10.8783 64 13 64H51C53.1217 64 55.1566 63.1571 56.6569 61.6569C58.1571 60.1566 59 58.1217 59 56V8C59 5.87827 58.1571 3.84344 56.6569 2.34315C55.1566 0.842855 53.1217 0 51 0V0ZM55 56C55 57.0609 54.5786 58.0783 53.8284 58.8284C53.0783 59.5786 52.0609 60 51 60H13C11.9391 60 10.9217 59.5786 10.1716 58.8284C9.42143 58.0783 9 57.0609 9 56V16H55V56ZM55 12H9V8C9 6.93913 9.42143 5.92172 10.1716 5.17157C10.9217 4.42143 11.9391 4 13 4H51C52.0609 4 53.0783 4.42143 53.8284 5.17157C54.5786 5.92172 55 6.93913 55 8V12Z" fill="#2E58FF"/>
<path d="M17 50C18.6569 50 20 48.6569 20 47C20 45.3431 18.6569 44 17 44C15.3431 44 14 45.3431 14 47C14 48.6569 15.3431 50 17 50Z" fill="#2E58FF"/>
<path d="M17 40C18.6569 40 20 38.6569 20 37C20 35.3431 18.6569 34 17 34C15.3431 34 14 35.3431 14 37C14 38.6569 15.3431 40 17 40Z" fill="#2E58FF"/>
<path d="M17 30C18.6569 30 20 28.6569 20 27C20 25.3431 18.6569 24 17 24C15.3431 24 14 25.3431 14 27C14 28.6569 15.3431 30 17 30Z" fill="#2E58FF"/>
</g>
<defs>
<clipPath id="clip0_902_890">
<rect width="64" height="64" fill="white"/>
</clipPath>
</defs>
</svg>
