<svg width="55" height="55" viewBox="0 0 40 40" fill="none" xmlns="http://www.w3.org/2000/svg">
<path d="M3.75 5H36.25C36.913 5 37.5489 5.26339 38.0178 5.73223C38.4866 6.20107 38.75 6.83696 38.75 7.5V12.5H1.25V7.5C1.25 6.83696 1.51339 6.20107 1.98223 5.73223C2.45107 5.26339 3.08696 5 3.75 5V5Z" fill="#8BC4FF"/>
<path d="M38.75 33.75V36.25C38.75 36.913 38.4866 37.5489 38.0178 38.0178C37.5489 38.4866 36.913 38.75 36.25 38.75H3.75C3.08696 38.75 2.45107 38.4866 1.98223 38.0178C1.51339 37.5489 1.25 36.913 1.25 36.25V12.5H38.75V18.75" fill="#D1E7FF"/>
<path d="M25 19.375V23.75H38.75V28.75H25V33.125L16.875 26.25L25 19.375Z" fill="#A2D0FF"/>
<path d="M10 8.75C9.33696 8.75 8.70107 8.48661 8.23223 8.01777C7.76339 7.54893 7.5 6.91304 7.5 6.25V3.75C7.5 3.08696 7.76339 2.45107 8.23223 1.98223C8.70107 1.51339 9.33696 1.25 10 1.25C10.663 1.25 11.2989 1.51339 11.7678 1.98223C12.2366 2.45107 12.5 3.08696 12.5 3.75V6.25C12.5 6.91304 12.2366 7.54893 11.7678 8.01777C11.2989 8.48661 10.663 8.75 10 8.75Z" fill="#D1E7FF"/>
<path d="M30 8.75C29.337 8.75 28.7011 8.48661 28.2322 8.01777C27.7634 7.54893 27.5 6.91304 27.5 6.25V3.75C27.5 3.08696 27.7634 2.45107 28.2322 1.98223C28.7011 1.51339 29.337 1.25 30 1.25C30.663 1.25 31.2989 1.51339 31.7678 1.98223C32.2366 2.45107 32.5 3.08696 32.5 3.75V6.25C32.5 6.91304 32.2366 7.54893 31.7678 8.01777C31.2989 8.48661 30.663 8.75 30 8.75Z" fill="#D1E7FF"/>
<path d="M36.25 3.75H33.75C33.75 2.75544 33.3549 1.80161 32.6517 1.09835C31.9484 0.395088 30.9946 0 30 0C29.0054 0 28.0516 0.395088 27.3483 1.09835C26.6451 1.80161 26.25 2.75544 26.25 3.75H13.75C13.75 2.75544 13.3549 1.80161 12.6517 1.09835C11.9484 0.395088 10.9946 0 10 0C9.00544 0 8.05161 0.395088 7.34835 1.09835C6.64509 1.80161 6.25 2.75544 6.25 3.75H3.75C2.75544 3.75 1.80161 4.14509 1.09835 4.84835C0.395088 5.55161 0 6.50544 0 7.5L0 36.25C0 37.2446 0.395088 38.1984 1.09835 38.9017C1.80161 39.6049 2.75544 40 3.75 40H36.25C37.2446 40 38.1984 39.6049 38.9017 38.9017C39.6049 38.1984 40 37.2446 40 36.25V33.75C40 33.4185 39.8683 33.1005 39.6339 32.8661C39.3995 32.6317 39.0815 32.5 38.75 32.5C38.4185 32.5 38.1005 32.6317 37.8661 32.8661C37.6317 33.1005 37.5 33.4185 37.5 33.75V36.25C37.5 36.5815 37.3683 36.8995 37.1339 37.1339C36.8995 37.3683 36.5815 37.5 36.25 37.5H3.75C3.41848 37.5 3.10054 37.3683 2.86612 37.1339C2.6317 36.8995 2.5 36.5815 2.5 36.25V13.75H37.5V18.75C37.5 19.0815 37.6317 19.3995 37.8661 19.6339C38.1005 19.8683 38.4185 20 38.75 20C39.0815 20 39.3995 19.8683 39.6339 19.6339C39.8683 19.3995 40 19.0815 40 18.75V7.5C40 6.50544 39.6049 5.55161 38.9017 4.84835C38.1984 4.14509 37.2446 3.75 36.25 3.75ZM30 2.5C30.3315 2.5 30.6495 2.6317 30.8839 2.86612C31.1183 3.10054 31.25 3.41848 31.25 3.75V6.25C31.25 6.58152 31.1183 6.89946 30.8839 7.13388C30.6495 7.3683 30.3315 7.5 30 7.5C29.6685 7.5 29.3505 7.3683 29.1161 7.13388C28.8817 6.89946 28.75 6.58152 28.75 6.25V3.75C28.75 3.41848 28.8817 3.10054 29.1161 2.86612C29.3505 2.6317 29.6685 2.5 30 2.5ZM10 2.5C10.3315 2.5 10.6495 2.6317 10.8839 2.86612C11.1183 3.10054 11.25 3.41848 11.25 3.75V6.25C11.25 6.58152 11.1183 6.89946 10.8839 7.13388C10.6495 7.3683 10.3315 7.5 10 7.5C9.66848 7.5 9.35054 7.3683 9.11612 7.13388C8.8817 6.89946 8.75 6.58152 8.75 6.25V3.75C8.75 3.41848 8.8817 3.10054 9.11612 2.86612C9.35054 2.6317 9.66848 2.5 10 2.5ZM2.5 11.25V7.5C2.5 7.16848 2.6317 6.85054 2.86612 6.61612C3.10054 6.3817 3.41848 6.25 3.75 6.25H6.25C6.25 7.24456 6.64509 8.19839 7.34835 8.90165C8.05161 9.60491 9.00544 10 10 10C10.9946 10 11.9484 9.60491 12.6517 8.90165C13.3549 8.19839 13.75 7.24456 13.75 6.25H26.25C26.25 7.24456 26.6451 8.19839 27.3483 8.90165C28.0516 9.60491 29.0054 10 30 10C30.9946 10 31.9484 9.60491 32.6517 8.90165C33.3549 8.19839 33.75 7.24456 33.75 6.25H36.25C36.5815 6.25 36.8995 6.3817 37.1339 6.61612C37.3683 6.85054 37.5 7.16848 37.5 7.5V11.25H2.5Z" fill="#2E58FF"/>
<path d="M38.75 22.5H26.25V19.375C26.2502 19.1366 26.1822 18.9032 26.0542 18.7022C25.9261 18.5012 25.7432 18.341 25.5271 18.2405C25.311 18.14 25.0706 18.1034 24.8344 18.135C24.5982 18.1666 24.3759 18.265 24.1937 18.4187L16.0687 25.2937C15.9294 25.4111 15.8173 25.5575 15.7405 25.7226C15.6636 25.8878 15.6238 26.0678 15.6238 26.25C15.6238 26.4322 15.6636 26.6122 15.7405 26.7773C15.8173 26.9425 15.9294 27.0889 16.0687 27.2062L24.1937 34.0812C24.3759 34.235 24.5982 34.3334 24.8344 34.365C25.0706 34.3966 25.311 34.3599 25.5271 34.2594C25.7432 34.1589 25.9261 33.9987 26.0542 33.7977C26.1822 33.5967 26.2502 33.3633 26.25 33.125V30H38.75C39.0815 30 39.3995 29.8683 39.6339 29.6339C39.8683 29.3994 40 29.0815 40 28.75V23.75C40 23.4185 39.8683 23.1005 39.6339 22.8661C39.3995 22.6317 39.0815 22.5 38.75 22.5ZM37.5 27.5H25C24.6685 27.5 24.3505 27.6317 24.1161 27.8661C23.8817 28.1005 23.75 28.4185 23.75 28.75V30.4312L18.8125 26.25L23.75 22.0687V23.75C23.75 24.0815 23.8817 24.3994 24.1161 24.6339C24.3505 24.8683 24.6685 25 25 25H37.5V27.5Z" fill="#2E58FF"/>
</svg>
